<?xml version="1.0" encoding="UTF-8"?>
<svg version="1.1" xmlns="http://www.w3.org/2000/svg" width="45" height="45">
<path d="M0 0 C1.26972656 -0.00644531 2.53945313 -0.01289063 3.84765625 -0.01953125 C5.16636719 -0.00019531 6.48507813 0.01914062 7.84375 0.0390625 C9.82181641 0.01005859 9.82181641 0.01005859 11.83984375 -0.01953125 C13.74443359 -0.00986328 13.74443359 -0.00986328 15.6875 0 C16.84443359 0.00563965 18.00136719 0.0112793 19.19335938 0.01708984 C23.30901306 0.86229151 24.78032912 2.38872544 27.34375 5.6640625 C28.18676758 8.00073242 28.18676758 8.00073242 28.48828125 10.39453125 C28.66713867 11.72387695 28.66713867 11.72387695 28.84960938 13.08007812 C28.95080078 13.99466797 29.05199219 14.90925781 29.15625 15.8515625 C29.33704102 17.19444336 29.33704102 17.19444336 29.52148438 18.56445312 C31.09437508 31.01275955 31.09437508 31.01275955 30.34375 36.6640625 C27.90625 39.7265625 27.90625 39.7265625 25.34375 41.6640625 C25.01375 41.9940625 24.68375 42.3240625 24.34375 42.6640625 C21.95391712 42.80214258 19.59500164 42.87713843 17.203125 42.90234375 C16.48392883 42.9104155 15.76473267 42.91848724 15.02374268 42.92680359 C13.49713563 42.94066098 11.97049739 42.95137571 10.44384766 42.95922852 C8.11690688 42.9763917 5.79140545 43.0202529 3.46484375 43.06445312 C1.98178129 43.07458432 0.49870673 43.08309909 -0.984375 43.08984375 C-1.67726624 43.10735184 -2.37015747 43.12485992 -3.08404541 43.14289856 C-7.88613781 43.12151782 -10.28625051 42.05894595 -13.65625 38.6640625 C-16.79259372 32.39137505 -14.37227371 22.56276268 -13.46875 15.8515625 C-13.36755859 14.93697266 -13.26636719 14.02238281 -13.16210938 13.08007812 C-13.04287109 12.19384766 -12.92363281 11.30761719 -12.80078125 10.39453125 C-12.70128174 9.60457764 -12.60178223 8.81462402 -12.49926758 8.00073242 C-10.25951646 1.79260675 -6.25105376 0.03047171 0 0 Z " fill="#FCC400" transform="translate(14.65625,1.3359375)"/>
<path d="M0 0 C2.39774745 -0.13572155 4.78775245 -0.23436868 7.1875 -0.3125 C8.19780273 -0.3753418 8.19780273 -0.3753418 9.22851562 -0.43945312 C13.09204592 -0.53368557 14.82998987 -0.12705783 17.953125 2.20703125 C20.69988455 5.95499514 20.65462331 8.126826 20.43359375 12.62109375 C19.82695679 15.94939921 18.47457189 17.74377269 16 20 C12.93466836 21.53266582 9.73245728 21.10276471 6.375 21.0625 C5.66859375 21.05798828 4.9621875 21.05347656 4.234375 21.04882812 C2.48954725 21.03703875 0.744763 21.01910324 -1 21 C-1 19.02 -1 17.04 -1 15 C-0.01 15 0.98 15 2 15 C2 11.7 2 8.4 2 5 C1.34 5 0.68 5 0 5 C0 3.35 0 1.7 0 0 Z " fill="#0A0800" transform="translate(13,14)"/>
<path d="M0 0 C2.475 0.495 2.475 0.495 5 1 C5 3.64 5 6.28 5 9 C3.35 9.33 1.7 9.66 0 10 C0 6.7 0 3.4 0 0 Z " fill="#EABA00" transform="translate(21,19)"/>
</svg>
